<svg xmlns="http://www.w3.org/2000/svg" width="21" height="20" viewBox="0 0 21 20">
    <path fill="#FC4C02" fill-rule="nonzero" d="M20.258 18.98l-4.967-4.86a8.388 8.388 0 0 0 2.14-5.592C17.43 3.823 13.518 0 8.714 0 3.907 0 0 3.827 0 8.528c0 4.7 3.911 8.527 8.715 8.527 2.184 0 4.183-.789 5.715-2.093l4.967 4.86a.623.623 0 0 0 .43.178.604.604 0 0 0 .431-.177.59.59 0 0 0 0-.843zM1.219 8.528c0-4.045 3.363-7.33 7.492-7.33 4.133 0 7.49 3.29 7.49 7.33s-3.357 7.335-7.49 7.335c-4.13 0-7.492-3.29-7.492-7.335z"/>
</svg>
